<svg width="16" height="16" viewBox="0 0 16 16" fill="none" xmlns="http://www.w3.org/2000/svg">
<path d="M1.43762 11.5152C1.43762 11.9503 1.61047 12.3676 1.91815 12.6753C2.22583 12.983 2.64313 13.1558 3.07825 13.1558H12.922C13.3571 13.1558 13.7744 12.983 14.0821 12.6753C14.3898 12.3676 14.5626 11.9503 14.5626 11.5152V7.00348H1.43762V11.5152ZM3.37122 9.28864C3.37122 9.05553 3.46381 8.83198 3.62864 8.66715C3.79347 8.50233 4.01702 8.40973 4.25012 8.40973H5.65637C5.88947 8.40973 6.11302 8.50233 6.27785 8.66715C6.44268 8.83198 6.53528 9.05553 6.53528 9.28864V9.87457C6.53528 10.1077 6.44268 10.3312 6.27785 10.4961C6.11302 10.6609 5.88947 10.7535 5.65637 10.7535H4.25012C4.01702 10.7535 3.79347 10.6609 3.62864 10.4961C3.46381 10.3312 3.37122 10.1077 3.37122 9.87457V9.28864Z" fill="#0075FF"/>
<path d="M12.922 2.84296H3.07825C2.64313 2.84296 2.22583 3.01581 1.91815 3.32348C1.61047 3.63116 1.43762 4.04846 1.43762 4.48358V5.2453H14.5626V4.48358C14.5626 4.04846 14.3898 3.63116 14.0821 3.32348C13.7744 3.01581 13.3571 2.84296 12.922 2.84296Z" fill="#0075FF"/>
</svg>
