<svg width="22" height="26" viewBox="0 0 22 26" fill="none" xmlns="http://www.w3.org/2000/svg">
<path d="M19.0735 1.34502C18.8401 0.656687 18.1868 0.166687 17.4168 0.166687H4.58346C3.81346 0.166687 3.17179 0.656687 2.92679 1.34502L0.500122 8.33335V17.6667C0.500122 18.3084 1.02512 18.8334 1.66679 18.8334H2.83346C3.47512 18.8334 4.00012 18.3084 4.00012 17.6667V16.5H18.0001V17.6667C18.0001 18.3084 18.5251 18.8334 19.1668 18.8334H20.3335C20.9751 18.8334 21.5001 18.3084 21.5001 17.6667V8.33335L19.0735 1.34502ZM4.99179 2.50002H16.9968L18.2568 6.12835H3.73179L4.99179 2.50002ZM19.1668 14.1667H2.83346V8.33335H19.1668V14.1667Z" fill="white"/>
<path d="M5.75006 13C6.71656 13 7.50006 12.2165 7.50006 11.25C7.50006 10.2835 6.71656 9.50003 5.75006 9.50003C4.78356 9.50003 4.00006 10.2835 4.00006 11.25C4.00006 12.2165 4.78356 13 5.75006 13Z" fill="white"/>
<path d="M16.2501 13C17.2166 13 18.0001 12.2165 18.0001 11.25C18.0001 10.2835 17.2166 9.50003 16.2501 9.50003C15.2836 9.50003 14.5001 10.2835 14.5001 11.25C14.5001 12.2165 15.2836 13 16.2501 13Z" fill="white"/>
<path d="M5.16675 22.3333H9.83342V20L16.8334 23.5H12.1667V25.8333L5.16675 22.3333Z" fill="white"/>
</svg>
