<svg width="16" height="17" viewBox="0 0 16 17" fill="none" xmlns="http://www.w3.org/2000/svg">
<path d="M1 12.2495C1 12.7136 1.18437 13.1588 1.51256 13.4869C1.84075 13.8151 2.28587 13.9995 2.75 13.9995H13.25C13.7141 13.9995 14.1592 13.8151 14.4874 13.4869C14.8156 13.1588 15 12.7136 15 12.2495V7.43701H1V12.2495ZM3.0625 9.87451C3.0625 9.62587 3.16127 9.38741 3.33709 9.2116C3.5129 9.03578 3.75136 8.93701 4 8.93701H5.5C5.74864 8.93701 5.9871 9.03578 6.16291 9.2116C6.33873 9.38741 6.4375 9.62587 6.4375 9.87451V10.4995C6.4375 10.7482 6.33873 10.9866 6.16291 11.1624C5.9871 11.3382 5.74864 11.437 5.5 11.437H4C3.75136 11.437 3.5129 11.3382 3.33709 11.1624C3.16127 10.9866 3.0625 10.7482 3.0625 10.4995V9.87451Z" fill="#F6AD55"/>
<path d="M13.25 2.99915H2.75C2.28587 2.99915 1.84075 3.18352 1.51256 3.51171C1.18437 3.8399 1 4.28502 1 4.74914V5.56164H15V4.74914C15 4.28502 14.8156 3.8399 14.4874 3.51171C14.1592 3.18352 13.7141 2.99915 13.25 2.99915V2.99915Z" fill="#F6AD55"/>
</svg>
