<svg width="13" height="13" viewBox="0 0 13 13" fill="none" xmlns="http://www.w3.org/2000/svg">
<path d="M11.911 1.18462C11.9066 1.16303 11.8961 1.14316 11.8807 1.12733C11.8654 1.1115 11.8458 1.10038 11.8244 1.09527C10.3944 0.745659 7.09049 1.99151 5.30045 3.78081C4.98118 4.0975 4.69012 4.44141 4.43058 4.80864C3.87858 4.75982 3.32658 4.80059 2.85612 5.00567C1.52872 5.58989 1.14225 7.11431 1.03458 7.77007C1.02848 7.80596 1.03078 7.84278 1.04131 7.87763C1.05185 7.91248 1.07032 7.94442 1.09529 7.97092C1.12025 7.99742 1.15102 8.01777 1.18518 8.03036C1.21934 8.04296 1.25596 8.04746 1.29215 8.04351L3.42374 7.8084C3.42527 7.96911 3.43496 8.12963 3.4528 8.28935C3.46352 8.40027 3.51276 8.50393 3.59196 8.58232L4.4174 9.40581C4.49586 9.4849 4.59948 9.53412 4.71036 9.54497C4.86919 9.56274 5.02882 9.57243 5.18864 9.57402L4.95475 11.7029C4.95085 11.7391 4.95538 11.7757 4.96799 11.8098C4.98061 11.844 5.00096 11.8747 5.02745 11.8997C5.05394 11.9246 5.08585 11.9431 5.12067 11.9537C5.1555 11.9642 5.1923 11.9666 5.22819 11.9605C5.88273 11.8555 7.40983 11.469 7.99064 10.1416C8.19571 9.67119 8.23771 9.12187 8.19034 8.57256C8.55846 8.313 8.90327 8.02186 9.22086 7.70244C11.0165 5.91582 12.2553 2.6856 11.911 1.18462ZM7.42936 5.57109C7.26539 5.40724 7.1537 5.19843 7.10843 4.97109C7.06315 4.74374 7.08631 4.50808 7.17498 4.2939C7.26366 4.07973 7.41386 3.89666 7.60659 3.76786C7.79932 3.63906 8.02592 3.57031 8.25773 3.57031C8.48953 3.57031 8.71613 3.63906 8.90886 3.76786C9.10159 3.89666 9.2518 4.07973 9.34047 4.2939C9.42914 4.50808 9.45231 4.74374 9.40703 4.97109C9.36175 5.19843 9.25006 5.40724 9.08609 5.57109C8.97737 5.67998 8.84824 5.76636 8.7061 5.82529C8.56396 5.88423 8.4116 5.91456 8.25773 5.91456C8.10385 5.91456 7.95149 5.88423 7.80935 5.82529C7.66721 5.76636 7.53808 5.67998 7.42936 5.57109Z" fill="white"/>
<path d="M4.36133 10.0023C4.22754 10.1363 4.01294 10.1886 3.75464 10.2333C3.17432 10.3321 2.66186 9.83067 2.76611 9.244C2.80591 9.02159 2.92358 8.70982 2.99683 8.63658C3.01283 8.62088 3.02349 8.60054 3.02728 8.57844C3.03107 8.55634 3.0278 8.53361 3.01793 8.51347C3.00807 8.49333 2.99211 8.47682 2.97232 8.46627C2.95254 8.45572 2.92993 8.45167 2.90771 8.4547C2.58319 8.4944 2.28128 8.64154 2.05005 8.87267C1.47607 9.44713 1.42188 11.5787 1.42188 11.5787C1.42188 11.5787 3.55469 11.5245 4.12866 10.9501C4.36051 10.719 4.50783 10.4166 4.54687 10.0917C4.55591 9.98961 4.43164 9.92882 4.36133 10.0023Z" fill="white"/>
</svg>
