<svg width="13" height="13" viewBox="0 0 13 13" fill="none" xmlns="http://www.w3.org/2000/svg">
<path d="M6.5 0.406067C3.13994 0.406067 0.40625 3.13976 0.40625 6.49982C0.40625 9.85987 3.13994 12.5936 6.5 12.5936C9.86006 12.5936 12.5937 9.85987 12.5937 6.49982C12.5937 3.13976 9.86006 0.406067 6.5 0.406067ZM9.67139 4.45753L5.73389 9.14503C5.69069 9.19648 5.63695 9.23804 5.57629 9.2669C5.51564 9.29576 5.44949 9.31125 5.38232 9.31232H5.37441C5.30871 9.31229 5.24375 9.29846 5.18374 9.27171C5.12373 9.24496 5.07001 9.20589 5.02607 9.15704L3.33857 7.28204C3.29572 7.23659 3.26238 7.18302 3.24052 7.1245C3.21866 7.06598 3.20872 7.00368 3.21128 6.94125C3.21384 6.87883 3.22886 6.81756 3.25544 6.76102C3.28202 6.70449 3.31964 6.65383 3.36608 6.61205C3.41251 6.57026 3.46684 6.53817 3.52585 6.51767C3.58487 6.49718 3.64738 6.48869 3.70973 6.4927C3.77207 6.49671 3.83298 6.51314 3.88889 6.54103C3.94479 6.56891 3.99455 6.60769 4.03525 6.65509L5.36211 8.12931L8.95361 3.8546C9.03417 3.76146 9.14815 3.70376 9.27091 3.69398C9.39367 3.6842 9.51535 3.72312 9.60964 3.80233C9.70394 3.88153 9.76327 3.99467 9.77483 4.11727C9.78638 4.23988 9.74922 4.3621 9.67139 4.45753V4.45753Z" fill="#01B574"/>
</svg>
