<svg width="21" height="21" viewBox="0 0 21 21" fill="none" xmlns="http://www.w3.org/2000/svg">
<g clip-path="url(#clip0_580_3962)">
<path fill-rule="evenodd" clip-rule="evenodd" d="M7.83241 -0.000793457C6.72684 4.24247e-05 5.83209 0.917841 5.8329 2.04879C5.83209 3.17974 6.72766 4.09753 7.83323 4.09837H9.83356V2.04962C9.83437 0.918676 8.9388 0.000878306 7.83241 -0.000793457C7.83323 -0.000793457 7.83323 -0.000793457 7.83241 -0.000793457V-0.000793457ZM7.83241 5.46587H2.49984C1.39427 5.46671 0.498697 6.38451 0.499514 7.51546C0.49788 8.6464 1.39345 9.5642 2.49902 9.56587H7.83241C8.93799 9.56504 9.83356 8.64724 9.83274 7.51629C9.83356 6.38451 8.93799 5.46671 7.83241 5.46587Z" fill="#36C5F0"/>
<path fill-rule="evenodd" clip-rule="evenodd" d="M20.4998 7.51625C20.5006 6.3853 19.605 5.4675 18.4994 5.46667C17.3938 5.4675 16.4983 6.3853 16.4991 7.51625V9.56667H18.4994C19.605 9.56583 20.5006 8.64803 20.4998 7.51625ZM15.1664 7.51625V2.04958C15.1672 0.91947 14.2724 0.00167176 13.1668 0C12.0613 0.000835882 11.1657 0.918634 11.1665 2.04958V7.51625C11.1649 8.6472 12.0604 9.56499 13.166 9.56667C14.2716 9.56583 15.1672 8.64803 15.1664 7.51625Z" fill="#2EB67D"/>
<path fill-rule="evenodd" clip-rule="evenodd" d="M13.1659 20.5C14.2714 20.4992 15.167 19.5814 15.1662 18.4504C15.167 17.3195 14.2714 16.4017 13.1659 16.4008H11.1655V18.4504C11.1647 19.5805 12.0603 20.4983 13.1659 20.5ZM13.1659 15.0325H18.4992C19.6048 15.0317 20.5004 14.1139 20.4996 12.9829C20.5012 11.852 19.6056 10.9342 18.5001 10.9325H13.1667C12.0611 10.9333 11.1655 11.8511 11.1663 12.9821C11.1655 14.1139 12.0603 15.0317 13.1659 15.0325Z" fill="#ECB22E"/>
<path fill-rule="evenodd" clip-rule="evenodd" d="M0.500001 12.9829C0.499183 14.1138 1.39475 15.0316 2.50033 15.0325C3.6059 15.0316 4.50147 14.1138 4.50065 12.9829V10.9333H2.50033C1.39475 10.9341 0.499183 11.8519 0.500001 12.9829ZM5.83339 12.9829V18.4496C5.83175 19.5805 6.72733 20.4983 7.8329 20.5C8.93847 20.4991 9.83404 19.5813 9.83323 18.4504V12.9845C9.83486 11.8536 8.93929 10.9358 7.83371 10.9341C6.72732 10.9341 5.83257 11.8519 5.83339 12.9829C5.83339 12.9837 5.83339 12.9829 5.83339 12.9829Z" fill="#E01E5A"/>
</g>
<defs>
<clipPath id="clip0_580_3962">
<rect x="0.5" y="-0.000793457" width="20" height="20.5" fill="white"/>
</clipPath>
</defs>
</svg>
