<svg width="15" height="16" viewBox="0 0 15 16" fill="none" xmlns="http://www.w3.org/2000/svg">
<g clip-path="url(#clip0_580_4329)">
<path d="M7.3431 3.46748C7.3018 3.42575 7.24684 3.40247 7.18968 3.40247C7.13252 3.40247 7.07757 3.42575 7.03626 3.46748L1.92873 8.61992C1.90704 8.64183 1.88979 8.66816 1.87801 8.69731C1.86623 8.72647 1.86017 8.75785 1.86021 8.78955L1.85938 13.6253C1.85938 13.8739 1.95291 14.1124 2.1194 14.2882C2.28589 14.464 2.5117 14.5628 2.74716 14.5628H5.41328C5.53101 14.5628 5.64392 14.5134 5.72716 14.4255C5.81041 14.3376 5.85718 14.2184 5.85718 14.094V10.1097C5.85718 10.0475 5.88056 9.98789 5.92218 9.94393C5.96381 9.89998 6.02026 9.87529 6.07912 9.87529H8.29858C8.35745 9.87529 8.4139 9.89998 8.45552 9.94393C8.49714 9.98789 8.52053 10.0475 8.52053 10.1097V14.094C8.52053 14.2184 8.56729 14.3376 8.65054 14.4255C8.73379 14.5134 8.84669 14.5628 8.96442 14.5628H11.6294C11.8649 14.5628 12.0907 14.464 12.2572 14.2882C12.4237 14.1124 12.5172 13.8739 12.5172 13.6253V8.78955C12.5173 8.75785 12.5112 8.72647 12.4994 8.69731C12.4876 8.66816 12.4704 8.64183 12.4487 8.61992L7.3431 3.46748Z" fill="white"/>
<path d="M13.7063 7.65369L11.6311 5.5572V2.37585C11.6311 2.25153 11.5844 2.13231 11.5011 2.0444C11.4179 1.95649 11.305 1.9071 11.1872 1.9071H9.85555C9.73782 1.9071 9.62492 1.95649 9.54167 2.0444C9.45843 2.13231 9.41166 2.25153 9.41166 2.37585V3.31335L7.80477 1.69089C7.6544 1.53035 7.43079 1.43835 7.18915 1.43835C6.94834 1.43835 6.72528 1.53035 6.57491 1.69119L0.673927 7.6531C0.501364 7.82888 0.479725 8.11804 0.636751 8.30847C0.676183 8.35654 0.724465 8.39563 0.778658 8.42337C0.832851 8.4511 0.891822 8.46691 0.951981 8.46981C1.01214 8.47272 1.07223 8.46266 1.1286 8.44026C1.18496 8.41787 1.23642 8.38359 1.27984 8.33953L7.03656 2.53054C7.07787 2.48882 7.13282 2.46553 7.18998 2.46553C7.24714 2.46553 7.3021 2.48882 7.3434 2.53054L13.1007 8.33953C13.1855 8.42541 13.2991 8.47228 13.4166 8.46986C13.534 8.46745 13.6458 8.41594 13.7274 8.32663C13.8977 8.14031 13.8836 7.83269 13.7063 7.65369Z" fill="white"/>
</g>
<defs>
<clipPath id="clip0_580_4329">
<rect width="14.2045" height="15" fill="white" transform="translate(0.0864258 0.5)"/>
</clipPath>
</defs>
</svg>
