<svg width="13" height="13" viewBox="0 0 13 13" fill="none" xmlns="http://www.w3.org/2000/svg">
<path d="M11.7136 3.19285C11.6855 3.13814 11.6448 3.09085 11.595 3.05483C11.5451 3.01881 11.4874 2.99507 11.4266 2.98555C11.3659 2.97604 11.3037 2.98101 11.2452 3.00006C11.1867 3.01911 11.1336 3.05171 11.0901 3.09519L9.59006 4.59617C9.51643 4.66873 9.4172 4.70941 9.31382 4.70941C9.21044 4.70941 9.11121 4.66873 9.03757 4.59617L8.38914 3.94675C8.35285 3.91048 8.32407 3.86741 8.30444 3.82002C8.2848 3.77262 8.27469 3.72181 8.27469 3.67051C8.27469 3.6192 8.2848 3.5684 8.30444 3.521C8.32407 3.4736 8.35285 3.43054 8.38914 3.39426L9.88279 1.90037C9.92756 1.8556 9.96079 1.80061 9.97959 1.74015C9.9984 1.67969 10.0022 1.61556 9.99074 1.55329C9.97926 1.49102 9.95281 1.43248 9.91367 1.3827C9.87454 1.33293 9.82389 1.29341 9.76609 1.26756C8.63792 0.763162 7.22971 1.02635 6.34177 1.90769C5.58738 2.65672 5.36253 3.82713 5.72532 5.11887C5.74488 5.18776 5.74499 5.26071 5.72565 5.32966C5.7063 5.3986 5.66824 5.46085 5.6157 5.5095L1.55125 9.22166C1.39291 9.36382 1.26519 9.53675 1.17589 9.72991C1.08658 9.92306 1.03756 10.1324 1.03182 10.3451C1.02608 10.5578 1.06373 10.7695 1.14248 10.9672C1.22123 11.1648 1.33943 11.3444 1.48987 11.4949C1.6403 11.6454 1.81982 11.7637 2.01748 11.8425C2.21513 11.9214 2.42677 11.9591 2.6395 11.9535C2.85222 11.9478 3.06156 11.8989 3.25475 11.8097C3.44794 11.7205 3.62093 11.5928 3.76316 11.4345L7.51511 7.36106C7.56306 7.30919 7.62426 7.27139 7.6921 7.25173C7.75995 7.23207 7.83187 7.2313 7.90012 7.24949C8.26788 7.35025 8.64723 7.40254 9.02854 7.40501C9.84397 7.40501 10.5595 7.14109 11.0757 6.63254C12.0315 5.69089 12.1772 4.09373 11.7136 3.19285ZM2.67893 11.1672C2.51814 11.1848 2.35587 11.152 2.2145 11.0734C2.07314 10.9948 1.95966 10.8742 1.88972 10.7284C1.81978 10.5825 1.79684 10.4186 1.82405 10.2591C1.85126 10.0997 1.92729 9.95264 2.04164 9.83825C2.15599 9.72385 2.30303 9.64777 2.46246 9.62051C2.62189 9.59324 2.78585 9.61613 2.93172 9.68602C3.07759 9.7559 3.19817 9.86934 3.27682 10.0107C3.35548 10.152 3.38832 10.3143 3.37083 10.4751C3.35158 10.652 3.2725 10.817 3.14669 10.9429C3.02087 11.0688 2.85585 11.1479 2.67893 11.1672Z" fill="white"/>
</svg>
