<svg width="85" height="52" viewBox="0 0 85 52" fill="none" xmlns="http://www.w3.org/2000/svg">
<path d="M79.7163 30.8579C80.9204 28.0007 82.4072 28.1436 83.0001 28.5721V51.8571H2.13695V11.1433C3.77884 11.6672 6.28366 13.4064 10.4832 11.1433C14.7248 8.8577 14.9984 12.1434 15.9562 16.7148C16.8256 20.8641 18.9663 17.2863 23.2079 22.0005C26.6179 25.7905 28.1883 10.2863 28.9545 6.28621C29.5018 3.42906 31.5542 2.71484 32.1015 6.28621C32.6488 11.1433 33.0045 20.6291 33.3329 22.0005C33.846 24.1434 34.9281 24.4024 35.7957 23.572C37.4376 22.0005 37.164 16.4581 37.164 12.572C37.164 8.8577 39.2793 8.8577 39.6268 11.1433C40.9951 20.1434 41.1319 33.8488 43.4579 34.0006C45.2092 34.1148 45.7839 30.572 46.7417 27.1437C47.1009 25.8577 48.3836 24.9723 50.0255 27.1437C52.0778 29.858 52.7619 27.4294 52.8988 26.4291C53.0356 25.4287 53.705 20.1583 53.8565 9.71526C53.9934 0.286704 57.3125 0.715185 57.5508 4.57226C58.3717 17.858 57.4042 35.8576 61.2451 35.8576C63.4342 35.8576 63.4342 31.1326 63.4342 27.2862C63.4342 24.1433 65.213 23.8576 65.7603 26.4291C66.3076 29.0005 66.718 32.0008 68.4967 32.0008C70.5672 32.0008 71.2332 28.2862 71.2332 25.4291C71.2332 22.5719 71.5083 19.1527 72.6015 19.0005C74.6538 18.7148 74.3802 28.8576 75.0643 32.0008C75.6067 34.4928 78.2113 34.4293 79.7163 30.8579Z" fill="url(#paint0_linear_580_2838)"/>
<path d="M83.0001 28.5721C82.4072 28.1436 80.9204 28.0007 79.7163 30.8579C78.2113 34.4293 75.6067 34.4928 75.0643 32.0008C74.3802 28.8576 74.6538 18.7148 72.6015 19.0005C71.5083 19.1527 71.2332 22.5719 71.2332 25.4291C71.2332 28.2862 70.5672 32.0008 68.4967 32.0008C66.718 32.0008 66.3076 29.0005 65.7603 26.4291C65.213 23.8576 63.4342 24.1433 63.4342 27.2862C63.4342 31.1326 63.4342 35.8576 61.2451 35.8576C57.4042 35.8576 58.3717 17.858 57.5508 4.57226C57.3125 0.715186 53.9934 0.286704 53.8565 9.71526C53.705 20.1583 53.0356 25.4287 52.8988 26.4291C52.7619 27.4294 52.0778 29.858 50.0255 27.1437C48.3836 24.9723 47.1009 25.8577 46.7417 27.1437C45.7839 30.572 45.2092 34.1148 43.4579 34.0006C41.1319 33.8488 40.9951 20.1434 39.6268 11.1433C39.2793 8.8577 37.164 8.8577 37.164 12.572C37.164 16.4581 37.4376 22.0005 35.7957 23.572C34.9281 24.4024 33.846 24.1434 33.3329 22.0005C33.0045 20.6291 32.6488 11.1433 32.1015 6.28621C31.5542 2.71484 29.5018 3.42906 28.9545 6.28621C28.1883 10.2863 26.6179 25.7905 23.2079 22.0005C18.9663 17.2863 16.8256 20.8641 15.9562 16.7148C14.9984 12.1434 14.7248 8.8577 10.4832 11.1433C6.28366 13.4064 3.77884 11.6672 2.13695 11.1433" stroke="url(#paint1_linear_580_2838)" stroke-width="3" stroke-linecap="round" stroke-linejoin="round"/>
<defs>
<linearGradient id="paint0_linear_580_2838" x1="42.5685" y1="2" x2="42.5685" y2="51.8571" gradientUnits="userSpaceOnUse">
<stop stop-color="#0075FF" stop-opacity="0.14"/>
<stop offset="1" stop-color="#582CFF" stop-opacity="0"/>
<stop offset="1" stop-color="#0075FF" stop-opacity="0"/>
</linearGradient>
<linearGradient id="paint1_linear_580_2838" x1="4.46296" y1="11.2857" x2="78.8218" y2="45.2003" gradientUnits="userSpaceOnUse">
<stop stop-color="#0075FF" stop-opacity="0"/>
<stop offset="1" stop-color="#0075FF"/>
</linearGradient>
</defs>
</svg>
