<svg width="85" height="52" viewBox="0 0 85 52" fill="none" xmlns="http://www.w3.org/2000/svg">
<path d="M5.28391 30.8579C4.07985 28.0007 2.59303 28.1436 2.00012 28.5721V51.8571H82.8633V11.1433C81.2214 11.6672 78.7166 13.4064 74.517 11.1433C70.2755 8.8577 70.0018 12.1434 69.044 16.7148C68.1747 20.8641 66.0339 17.2863 61.7924 22.0005C58.3823 25.7905 56.812 10.2863 56.0457 6.28621C55.4984 3.42906 53.4461 2.71484 52.8988 6.28621C52.3515 11.1433 51.9957 20.6291 51.6674 22.0005C51.1542 24.1434 50.0721 24.4024 49.2045 23.572C47.5626 22.0005 47.8363 16.4581 47.8363 12.572C47.8363 8.8577 45.7209 8.8577 45.3734 11.1433C44.0052 20.1434 43.8684 33.8488 41.5424 34.0006C39.791 34.1148 39.2163 30.572 38.2586 27.1437C37.8993 25.8577 36.6167 24.9723 34.9748 27.1437C32.9224 29.858 32.2383 27.4294 32.1015 26.4291C31.9646 25.4287 31.2952 20.1583 31.1437 9.71526C31.0069 0.286704 27.6878 0.715185 27.4494 4.57226C26.6285 17.858 27.596 35.8576 23.7552 35.8576C21.566 35.8576 21.566 31.1326 21.566 27.2862C21.566 24.1433 19.7873 23.8576 19.24 26.4291C18.6927 29.0005 18.2822 32.0008 16.5035 32.0008C14.433 32.0008 13.767 28.2862 13.767 25.4291C13.767 22.5719 13.4919 19.1527 12.3988 19.0005C10.3464 18.7148 10.6201 28.8576 9.93593 32.0008C9.39355 34.4928 6.78897 34.4293 5.28391 30.8579Z" fill="url(#paint0_linear_580_2850)"/>
<path d="M2.00012 28.5721C2.59303 28.1436 4.07985 28.0007 5.28391 30.8579C6.78897 34.4293 9.39355 34.4928 9.93593 32.0008C10.6201 28.8576 10.3464 18.7148 12.3988 19.0005C13.4919 19.1527 13.767 22.5719 13.767 25.4291C13.767 28.2862 14.433 32.0008 16.5035 32.0008C18.2822 32.0008 18.6927 29.0005 19.24 26.4291C19.7873 23.8576 21.566 24.1433 21.566 27.2862C21.566 31.1326 21.566 35.8576 23.7552 35.8576C27.596 35.8576 26.6285 17.858 27.4494 4.57226C27.6878 0.715186 31.0069 0.286704 31.1437 9.71526C31.2952 20.1583 31.9646 25.4287 32.1015 26.4291C32.2383 27.4294 32.9224 29.858 34.9748 27.1437C36.6167 24.9723 37.8993 25.8577 38.2586 27.1437C39.2163 30.572 39.791 34.1148 41.5424 34.0006C43.8684 33.8488 44.0052 20.1434 45.3734 11.1433C45.7209 8.8577 47.8363 8.8577 47.8363 12.572C47.8363 16.4581 47.5626 22.0005 49.2045 23.572C50.0721 24.4024 51.1542 24.1434 51.6674 22.0005C51.9957 20.6291 52.3515 11.1433 52.8988 6.28621C53.4461 2.71484 55.4984 3.42906 56.0457 6.28621C56.812 10.2863 58.3823 25.7905 61.7924 22.0005C66.0339 17.2863 68.1747 20.8641 69.044 16.7148C70.0018 12.1434 70.2755 8.8577 74.517 11.1433C78.7166 13.4064 81.2214 11.6672 82.8633 11.1433" stroke="url(#paint1_linear_580_2850)" stroke-width="3" stroke-linecap="round" stroke-linejoin="round"/>
<defs>
<linearGradient id="paint0_linear_580_2850" x1="42.4317" y1="2" x2="42.4317" y2="51.8571" gradientUnits="userSpaceOnUse">
<stop stop-color="#01B574" stop-opacity="0.14"/>
<stop offset="1" stop-color="#01B574" stop-opacity="0"/>
</linearGradient>
<linearGradient id="paint1_linear_580_2850" x1="80.5373" y1="11.2857" x2="6.17841" y2="45.2003" gradientUnits="userSpaceOnUse">
<stop stop-color="#01B574"/>
<stop offset="1" stop-color="#01B574" stop-opacity="0"/>
</linearGradient>
</defs>
</svg>
