<svg width="24" height="23" viewBox="0 0 24 23" fill="none" xmlns="http://www.w3.org/2000/svg">
<path d="M4.94644 4.81816H19.0089C19.1732 4.81809 19.3373 4.82851 19.5002 4.84937C19.445 4.46167 19.3118 4.08917 19.1088 3.75433C18.9057 3.41949 18.6369 3.12925 18.3186 2.9011C18.0003 2.67294 17.6391 2.51161 17.2568 2.42683C16.8745 2.34204 16.4789 2.33556 16.094 2.40776L4.52895 4.38223H4.51577C3.78983 4.52105 3.14427 4.93178 2.71094 5.53052C3.36379 5.06616 4.14529 4.81713 4.94644 4.81816V4.81816Z" fill="white"/>
<path d="M19.0093 5.87488H4.94678C4.20111 5.87569 3.48621 6.17227 2.95894 6.69954C2.43167 7.22681 2.13509 7.94171 2.13428 8.68738V17.1249C2.13509 17.8705 2.43167 18.5854 2.95894 19.1127C3.48621 19.64 4.20111 19.9366 4.94678 19.9374H19.0093C19.7549 19.9366 20.4698 19.64 20.9971 19.1127C21.5244 18.5854 21.821 17.8705 21.8218 17.1249V8.68738C21.821 7.94171 21.5244 7.22681 20.9971 6.69954C20.4698 6.17227 19.7549 5.87569 19.0093 5.87488V5.87488ZM16.9219 14.3124C16.6437 14.3124 16.3719 14.2299 16.1406 14.0754C15.9093 13.9209 15.7291 13.7012 15.6227 13.4443C15.5162 13.1873 15.4884 12.9046 15.5426 12.6318C15.5969 12.359 15.7308 12.1084 15.9275 11.9118C16.1242 11.7151 16.3747 11.5812 16.6475 11.5269C16.9203 11.4726 17.2031 11.5005 17.46 11.6069C17.717 11.7134 17.9366 11.8936 18.0911 12.1249C18.2456 12.3561 18.3281 12.628 18.3281 12.9061C18.3281 13.2791 18.18 13.6368 17.9162 13.9005C17.6525 14.1642 17.2948 14.3124 16.9219 14.3124Z" fill="white"/>
<path d="M2.15625 11.6514V7.27881C2.15625 6.32651 2.68359 4.72998 4.51392 4.38413C6.06738 4.09277 7.60547 4.09277 7.60547 4.09277C7.60547 4.09277 8.61621 4.7959 7.78125 4.7959C6.94629 4.7959 6.96826 5.87256 7.78125 5.87256C8.59424 5.87256 7.78125 6.90527 7.78125 6.90527L4.50732 10.6187L2.15625 11.6514Z" fill="white"/>
</svg>
