<svg width="16" height="16" viewBox="0 0 16 16" fill="none" xmlns="http://www.w3.org/2000/svg">
<path d="M13.7523 10.6656C13.7004 10.6031 13.6495 10.5406 13.5995 10.4803C12.912 9.64872 12.496 9.14685 12.496 6.79279C12.496 5.57404 12.2045 4.57404 11.6298 3.82404C11.206 3.26998 10.6332 2.84966 9.8782 2.53904C9.86849 2.53363 9.85981 2.52654 9.85258 2.5181C9.58102 1.60873 8.83789 0.999664 7.99977 0.999664C7.16164 0.999664 6.41883 1.60873 6.14727 2.51716C6.14002 2.5253 6.13146 2.53216 6.12195 2.53748C4.36008 3.26279 3.50383 4.65435 3.50383 6.79185C3.50383 9.14685 3.08852 9.64872 2.40039 10.4793C2.35039 10.5397 2.29945 10.6009 2.24758 10.6647C2.11358 10.8263 2.02868 11.0229 2.00293 11.2312C1.97718 11.4396 2.01165 11.6509 2.10227 11.8403C2.29508 12.2465 2.70602 12.4987 3.17508 12.4987H12.8279C13.2948 12.4987 13.7029 12.2468 13.8963 11.8425C13.9873 11.6531 14.0221 11.4415 13.9966 11.2329C13.9711 11.0244 13.8863 10.8275 13.7523 10.6656Z" fill="#0075FF"/>
<path d="M8.00011 15C8.45168 14.9996 8.89474 14.877 9.28228 14.6452C9.66983 14.4134 9.98741 14.0811 10.2014 13.6834C10.2114 13.6643 10.2164 13.643 10.2158 13.6215C10.2152 13.5999 10.209 13.5789 10.1979 13.5604C10.1868 13.542 10.171 13.5267 10.1523 13.5161C10.1335 13.5055 10.1123 13.4999 10.0907 13.5H5.91011C5.88852 13.4999 5.86728 13.5054 5.84846 13.516C5.82964 13.5265 5.81388 13.5418 5.80271 13.5603C5.79154 13.5788 5.78534 13.5998 5.78472 13.6214C5.7841 13.643 5.78908 13.6643 5.79917 13.6834C6.01309 14.081 6.33062 14.4134 6.71811 14.6452C7.10559 14.8769 7.54859 14.9995 8.00011 15Z" fill="#0075FF"/>
</svg>
