<svg width="15" height="15" viewBox="0 0 15 15" fill="none" xmlns="http://www.w3.org/2000/svg">
<g clip-path="url(#clip0_580_3177)">
<path d="M12.5391 6.56262H8.4375C8.06454 6.56262 7.70685 6.41446 7.44313 6.15074C7.17941 5.88702 7.03125 5.52933 7.03125 5.15637V1.05481C7.03125 1.02373 7.0189 0.993922 6.99693 0.971946C6.97495 0.949969 6.94514 0.937622 6.91406 0.937622H4.21875C3.72147 0.937622 3.24456 1.13517 2.89292 1.4868C2.54129 1.83843 2.34375 2.31534 2.34375 2.81262V12.1876C2.34375 12.6849 2.54129 13.1618 2.89292 13.5134C3.24456 13.8651 3.72147 14.0626 4.21875 14.0626H10.7812C11.2785 14.0626 11.7554 13.8651 12.1071 13.5134C12.4587 13.1618 12.6562 12.6849 12.6562 12.1876V6.67981C12.6562 6.64873 12.6439 6.61892 12.6219 6.59694C12.5999 6.57497 12.5701 6.56262 12.5391 6.56262ZM9.84375 11.2501H5.15625C5.03193 11.2501 4.9127 11.2007 4.82479 11.1128C4.73689 11.0249 4.6875 10.9057 4.6875 10.7814C4.6875 10.657 4.73689 10.5378 4.82479 10.4499C4.9127 10.362 5.03193 10.3126 5.15625 10.3126H9.84375C9.96807 10.3126 10.0873 10.362 10.1752 10.4499C10.2631 10.5378 10.3125 10.657 10.3125 10.7814C10.3125 10.9057 10.2631 11.0249 10.1752 11.1128C10.0873 11.2007 9.96807 11.2501 9.84375 11.2501ZM9.84375 8.90637H5.15625C5.03193 8.90637 4.9127 8.85698 4.82479 8.76908C4.73689 8.68117 4.6875 8.56194 4.6875 8.43762C4.6875 8.3133 4.73689 8.19407 4.82479 8.10616C4.9127 8.01826 5.03193 7.96887 5.15625 7.96887H9.84375C9.96807 7.96887 10.0873 8.01826 10.1752 8.10616C10.2631 8.19407 10.3125 8.3133 10.3125 8.43762C10.3125 8.56194 10.2631 8.68117 10.1752 8.76908C10.0873 8.85698 9.96807 8.90637 9.84375 8.90637Z" fill="white"/>
<path d="M12.2818 5.526L8.06865 1.31282C8.06046 1.30467 8.05004 1.29913 8.03871 1.29689C8.02737 1.29465 8.01563 1.29581 8.00495 1.30022C7.99428 1.30464 7.98514 1.31211 7.9787 1.3217C7.97226 1.33129 7.9688 1.34257 7.96875 1.35412V5.15715C7.96875 5.28147 8.01814 5.4007 8.10604 5.48861C8.19395 5.57652 8.31318 5.6259 8.4375 5.6259H12.2405C12.2521 5.62585 12.2634 5.62239 12.273 5.61595C12.2825 5.60951 12.29 5.60037 12.2944 5.5897C12.2988 5.57902 12.3 5.56728 12.2978 5.55594C12.2955 5.54461 12.29 5.53419 12.2818 5.526Z" fill="white"/>
</g>
<defs>
<clipPath id="clip0_580_3177">
<rect width="15" height="15" fill="white"/>
</clipPath>
</defs>
</svg>
