<svg width="21" height="21" viewBox="0 0 21 21" fill="none" xmlns="http://www.w3.org/2000/svg">
<g clip-path="url(#clip0_580_3902)">
<path d="M20.2596 9.91897L11.3968 0.989848L10.538 0.124634L3.86637 6.84626L0.815567 9.91897C0.663181 10.0733 0.577637 10.2821 0.577637 10.4998C0.577637 10.7175 0.663181 10.9263 0.815567 11.0806L6.91074 17.2214L10.538 20.875L17.2088 14.1533L17.3127 14.0496L20.2596 11.0853C20.336 11.0089 20.3966 10.918 20.438 10.8179C20.4793 10.7179 20.5006 10.6105 20.5006 10.5021C20.5006 10.3937 20.4793 10.2864 20.438 10.1863C20.3966 10.0862 20.336 9.99535 20.2596 9.91897ZM10.538 13.5679L7.49276 10.4998L10.538 7.43171L13.5824 10.4998L10.538 13.5679Z" fill="#2684FF"/>
<path d="M10.5375 7.43191C9.57978 6.46722 9.03988 5.15988 9.03575 3.79546C9.03161 2.43103 9.56358 1.1204 10.5155 0.149841L3.85205 6.86035L7.47844 10.5139L10.5375 7.43191Z" fill="url(#paint0_linear_580_3902)"/>
<path d="M13.5902 10.4916L10.5376 13.5681C11.499 14.5369 12.039 15.8507 12.039 17.2207C12.039 18.5906 11.499 19.9045 10.5376 20.8733L17.2194 14.1452L13.5902 10.4916Z" fill="url(#paint1_linear_580_3902)"/>
</g>
<defs>
<linearGradient id="paint0_linear_580_3902" x1="9.99228" y1="4.3277" x2="5.70802" y2="8.5792" gradientUnits="userSpaceOnUse">
<stop offset="0.18" stop-color="#0052CC"/>
<stop offset="1" stop-color="#2684FF"/>
</linearGradient>
<linearGradient id="paint1_linear_580_3902" x1="776.604" y1="900.925" x2="1212.74" y2="1181.57" gradientUnits="userSpaceOnUse">
<stop offset="0.18" stop-color="#0052CC"/>
<stop offset="1" stop-color="#2684FF"/>
</linearGradient>
<clipPath id="clip0_580_3902">
<rect x="0.5" y="-0.000793457" width="20" height="21" fill="white"/>
</clipPath>
</defs>
</svg>
