<svg width="16" height="16" viewBox="0 0 16 16" fill="none" xmlns="http://www.w3.org/2000/svg">
<path d="M10.2453 2.39175C9.67522 1.77622 8.87893 1.43726 8.00003 1.43726C7.11643 1.43726 6.31751 1.77417 5.75003 2.38589C5.1764 3.00435 4.8969 3.84487 4.96253 4.75249C5.09261 6.54311 6.4552 7.99975 8.00003 7.99975C9.54485 7.99975 10.9051 6.54341 11.0372 4.75307C11.1037 3.85366 10.8225 3.01489 10.2453 2.39175Z" fill="#0075FF"/>
<path d="M13.1564 14.5616H2.84392C2.70894 14.5633 2.57526 14.535 2.45262 14.4786C2.32997 14.4222 2.22145 14.3391 2.13493 14.2355C1.9445 14.0079 1.86775 13.697 1.92458 13.3827C2.17185 12.011 2.94353 10.8588 4.15642 10.0499C5.23396 9.3318 6.5989 8.93658 8.00016 8.93658C9.40143 8.93658 10.7664 9.33209 11.8439 10.0499C13.0568 10.8585 13.8285 12.0107 14.0757 13.3824C14.1326 13.6967 14.0558 14.0076 13.8654 14.2352C13.7789 14.3389 13.6704 14.422 13.5478 14.4784C13.4251 14.5349 13.2914 14.5633 13.1564 14.5616Z" fill="#0075FF"/>
</svg>
