<svg width="13" height="13" viewBox="0 0 13 13" fill="none" xmlns="http://www.w3.org/2000/svg">
<path d="M4.54688 11.1875C4.97835 11.1875 5.32812 10.8377 5.32812 10.4062C5.32812 9.97473 4.97835 9.62495 4.54688 9.62495C4.1154 9.62495 3.76562 9.97473 3.76562 10.4062C3.76562 10.8377 4.1154 11.1875 4.54688 11.1875Z" fill="white"/>
<path d="M10.0156 11.1875C10.4471 11.1875 10.7969 10.8377 10.7969 10.4062C10.7969 9.97473 10.4471 9.62495 10.0156 9.62495C9.58415 9.62495 9.23438 9.97473 9.23438 10.4062C9.23438 10.8377 9.58415 11.1875 10.0156 11.1875Z" fill="white"/>
<path d="M11.4023 3.19887C11.3475 3.13174 11.2783 3.07768 11.1999 3.0406C11.1216 3.00352 11.0359 2.98436 10.9492 2.98451H3.5188L3.36914 2.13539C3.35318 2.04494 3.30586 1.96301 3.2355 1.90399C3.16513 1.84496 3.07622 1.81262 2.98437 1.81264H1.42187C1.31827 1.81264 1.21892 1.85379 1.14566 1.92705C1.0724 2.00031 1.03125 2.09966 1.03125 2.20326C1.03125 2.30686 1.0724 2.40622 1.14566 2.47948C1.21892 2.55273 1.31827 2.59389 1.42187 2.59389H2.65674L3.77148 8.91176C3.78744 9.0022 3.83476 9.08414 3.90513 9.14316C3.97549 9.20219 4.0644 9.23453 4.15625 9.23451H10.4062C10.5098 9.23451 10.6092 9.19336 10.6825 9.1201C10.7557 9.04684 10.7969 8.94749 10.7969 8.84389C10.7969 8.74028 10.7557 8.64093 10.6825 8.56767C10.6092 8.49441 10.5098 8.45326 10.4062 8.45326H4.48389L4.34619 7.67201H10.2461C10.3816 7.67184 10.5128 7.62487 10.6176 7.53905C10.7224 7.45323 10.7944 7.33383 10.8213 7.20106L11.5244 3.68544C11.5414 3.60036 11.5392 3.51257 11.5181 3.42843C11.497 3.34428 11.4574 3.26588 11.4023 3.19887Z" fill="white"/>
</svg>
