<svg width="24" height="23" viewBox="0 0 24 23" fill="none" xmlns="http://www.w3.org/2000/svg">
<path d="M8.48438 19.9374C9.26103 19.9374 9.89062 19.3078 9.89062 18.5311C9.89062 17.7545 9.26103 17.1249 8.48438 17.1249C7.70772 17.1249 7.07812 17.7545 7.07812 18.5311C7.07812 19.3078 7.70772 19.9374 8.48438 19.9374Z" fill="white"/>
<path d="M18.3281 19.9374C19.1048 19.9374 19.7344 19.3078 19.7344 18.5311C19.7344 17.7545 19.1048 17.1249 18.3281 17.1249C17.5515 17.1249 16.9219 17.7545 16.9219 18.5311C16.9219 19.3078 17.5515 19.9374 18.3281 19.9374Z" fill="white"/>
<path d="M20.8242 5.55796C20.7254 5.43713 20.601 5.33981 20.4599 5.27308C20.3188 5.20634 20.1647 5.17185 20.0086 5.17212H6.63384L6.36445 3.6437C6.33573 3.4809 6.25056 3.33342 6.1239 3.22717C5.99724 3.12093 5.83719 3.06271 5.67187 3.06274H2.85937C2.67289 3.06274 2.49405 3.13682 2.36219 3.26868C2.23033 3.40055 2.15625 3.57939 2.15625 3.76587C2.15625 3.95235 2.23033 4.13119 2.36219 4.26305C2.49405 4.39491 2.67289 4.46899 2.85937 4.46899H5.08213L7.08867 15.8412C7.11739 16.004 7.20257 16.1514 7.32923 16.2577C7.45588 16.3639 7.61593 16.4221 7.78125 16.4221H19.0312C19.2177 16.4221 19.3966 16.348 19.5284 16.2162C19.6603 16.0843 19.7344 15.9055 19.7344 15.719C19.7344 15.5325 19.6603 15.3537 19.5284 15.2218C19.3966 15.0899 19.2177 15.0159 19.0312 15.0159H8.37099L8.12314 13.6096H18.743C18.9868 13.6093 19.2231 13.5248 19.4117 13.3703C19.6004 13.2158 19.7299 13.0009 19.7783 12.7619L21.0439 6.43379C21.0744 6.28064 21.0705 6.12263 21.0325 5.97117C20.9945 5.81971 20.9234 5.67857 20.8242 5.55796Z" fill="white"/>
</svg>
