<svg width="16" height="17" viewBox="0 0 16 17" fill="none" xmlns="http://www.w3.org/2000/svg">
<path d="M5.5 14.4999C6.05228 14.4999 6.5 14.0522 6.5 13.4999C6.5 12.9477 6.05228 12.4999 5.5 12.4999C4.94772 12.4999 4.5 12.9477 4.5 13.4999C4.5 14.0522 4.94772 14.4999 5.5 14.4999Z" fill="#4299E1"/>
<path d="M12.5 14.4999C13.0523 14.4999 13.5 14.0522 13.5 13.4999C13.5 12.9477 13.0523 12.4999 12.5 12.4999C11.9477 12.4999 11.5 12.9477 11.5 13.4999C11.5 14.0522 11.9477 14.4999 12.5 14.4999Z" fill="#4299E1"/>
<path d="M14.275 4.27456C14.2048 4.18864 14.1163 4.11943 14.0159 4.07197C13.9156 4.02452 13.806 3.99999 13.695 4.00018H4.18406L3.9925 2.91331C3.97207 2.79754 3.91151 2.69266 3.82144 2.61711C3.73137 2.54156 3.61756 2.50016 3.5 2.50018H1.5C1.36739 2.50018 1.24021 2.55286 1.14645 2.64663C1.05268 2.7404 1 2.86757 1 3.00018C1 3.13279 1.05268 3.25997 1.14645 3.35374C1.24021 3.4475 1.36739 3.50018 1.5 3.50018H3.08062L4.5075 11.5871C4.52793 11.7028 4.58849 11.8077 4.67856 11.8833C4.76863 11.9588 4.88244 12.0002 5 12.0002H13C13.1326 12.0002 13.2598 11.9475 13.3536 11.8537C13.4473 11.76 13.5 11.6328 13.5 11.5002C13.5 11.3676 13.4473 11.2404 13.3536 11.1466C13.2598 11.0529 13.1326 11.0002 13 11.0002H5.41937L5.24312 10.0002H12.795C12.9684 9.99996 13.1364 9.93984 13.2706 9.82999C13.4047 9.72014 13.4968 9.56731 13.5312 9.39737L14.4312 4.89737C14.4529 4.78846 14.4502 4.6761 14.4231 4.5684C14.3961 4.46069 14.3455 4.36033 14.275 4.27456Z" fill="#4299E1"/>
</svg>
