<svg width="16" height="16" viewBox="0 0 16 16" fill="none" xmlns="http://www.w3.org/2000/svg">
<path d="M14.2568 4.0313C14.2231 3.96565 14.1743 3.9089 14.1144 3.86568C14.0546 3.82245 13.9854 3.79397 13.9125 3.78254C13.8395 3.77112 13.7649 3.77708 13.6948 3.79995C13.6246 3.82281 13.5608 3.86193 13.5086 3.91411L11.7086 5.71528C11.6202 5.80236 11.5011 5.85117 11.3771 5.85117C11.253 5.85117 11.1339 5.80236 11.0456 5.71528L10.2675 4.93598C10.2239 4.89245 10.1894 4.84078 10.1658 4.7839C10.1422 4.72702 10.1301 4.66606 10.1301 4.60449C10.1301 4.54292 10.1422 4.48196 10.1658 4.42508C10.1894 4.3682 10.2239 4.31652 10.2675 4.273L12.0598 2.48032C12.1136 2.4266 12.1534 2.36061 12.176 2.28806C12.1986 2.21551 12.2032 2.13855 12.1894 2.06383C12.1756 1.98911 12.1439 1.91885 12.0969 1.85912C12.0499 1.79939 11.9892 1.75197 11.9198 1.72095V1.72095C10.566 1.11567 8.87614 1.43149 7.81062 2.48911C6.90534 3.38794 6.63552 4.79243 7.07087 6.34253C7.09434 6.42519 7.09448 6.51273 7.07126 6.59547C7.04804 6.6782 7.00238 6.7529 6.93933 6.81128L2.06199 11.2659C1.87198 11.4365 1.71872 11.644 1.61155 11.8758C1.50439 12.1075 1.44557 12.3587 1.43867 12.614C1.43178 12.8693 1.47696 13.1232 1.57146 13.3605C1.66597 13.5977 1.8078 13.8132 1.98833 13.9938C2.16885 14.1744 2.38428 14.3163 2.62146 14.4109C2.85865 14.5055 3.11262 14.5508 3.36788 14.5441C3.62315 14.5373 3.87436 14.4786 4.10619 14.3715C4.33801 14.2644 4.5456 14.1113 4.71628 13.9213L9.21862 9.03315C9.27617 8.97091 9.3496 8.92555 9.43101 8.90196C9.51243 8.87837 9.59873 8.87743 9.68064 8.89926C10.1219 9.02018 10.5772 9.08292 11.0347 9.08588C12.0133 9.08588 12.8719 8.76919 13.4913 8.15893C14.6383 7.02895 14.8132 5.11235 14.2568 4.0313ZM3.41521 13.6005C3.22226 13.6216 3.02753 13.5822 2.85789 13.4879C2.68826 13.3936 2.55208 13.249 2.46815 13.0739C2.38423 12.8989 2.35669 12.7022 2.38934 12.5109C2.422 12.3195 2.51323 12.143 2.65045 12.0058C2.78768 11.8685 2.96412 11.7772 3.15544 11.7445C3.34676 11.7118 3.54351 11.7392 3.71856 11.8231C3.8936 11.907 4.0383 12.0431 4.13268 12.2127C4.22706 12.3823 4.26648 12.577 4.24548 12.77C4.22238 12.9823 4.12749 13.1803 3.97651 13.3314C3.82553 13.4824 3.62751 13.5774 3.41521 13.6005V13.6005Z" fill="#0075FF"/>
</svg>
