<svg width="16" height="16" viewBox="0 0 16 16" fill="none" xmlns="http://www.w3.org/2000/svg">
<path d="M13.0392 7.06256H8.93762C8.56466 7.06256 8.20698 6.9144 7.94325 6.65068C7.67953 6.38696 7.53137 6.02927 7.53137 5.65631V1.55475C7.53137 1.52367 7.51903 1.49386 7.49705 1.47188C7.47507 1.44991 7.44526 1.43756 7.41418 1.43756H4.71887C4.22159 1.43756 3.74468 1.63511 3.39305 1.98674C3.04142 2.33837 2.84387 2.81528 2.84387 3.31256V12.6876C2.84387 13.1848 3.04142 13.6618 3.39305 14.0134C3.74468 14.365 4.22159 14.5626 4.71887 14.5626H11.2814C11.7787 14.5626 12.2556 14.365 12.6072 14.0134C12.9588 13.6618 13.1564 13.1848 13.1564 12.6876V7.17975C13.1564 7.14867 13.144 7.11886 13.122 7.09688C13.1001 7.07491 13.0703 7.06256 13.0392 7.06256Z" fill="#0075FF"/>
<path d="M12.782 6.02591L8.56877 1.81272C8.56058 1.80458 8.55016 1.79904 8.53883 1.7968C8.5275 1.79456 8.51575 1.79572 8.50508 1.80013C8.4944 1.80455 8.48527 1.81202 8.47882 1.82161C8.47238 1.8312 8.46892 1.84248 8.46887 1.85403V5.65706C8.46887 5.78138 8.51826 5.90061 8.60617 5.98852C8.69407 6.07642 8.8133 6.12581 8.93762 6.12581H12.7406C12.7522 6.12576 12.7635 6.1223 12.7731 6.11586C12.7827 6.10942 12.7901 6.10028 12.7945 6.08961C12.799 6.07893 12.8001 6.06719 12.7979 6.05585C12.7956 6.04452 12.7901 6.0341 12.782 6.02591Z" fill="#0075FF"/>
</svg>
