<svg width="16" height="16" viewBox="0 0 16 16" fill="none" xmlns="http://www.w3.org/2000/svg">
<path d="M14.4935 1.62154C14.4881 1.59562 14.4755 1.57178 14.4571 1.55278C14.4387 1.53379 14.4152 1.52045 14.3895 1.51431C12.6736 1.09478 8.70883 2.5898 6.56079 4.73696C6.17766 5.11699 5.82839 5.52968 5.51694 5.97036C4.85454 5.91177 4.19214 5.96069 3.62758 6.20679C2.03471 6.90786 1.57094 8.73716 1.44175 9.52407C1.43442 9.56714 1.43718 9.61133 1.44982 9.65315C1.46246 9.69497 1.48463 9.73329 1.51459 9.76509C1.54454 9.79689 1.58147 9.82131 1.62246 9.83643C1.66346 9.85154 1.7074 9.85694 1.75083 9.8522L4.30874 9.57007C4.31056 9.76292 4.3222 9.95555 4.3436 10.1472C4.35647 10.2803 4.41556 10.4047 4.51059 10.4988L5.50112 11.487C5.59528 11.5819 5.71962 11.6409 5.85268 11.654C6.04328 11.6753 6.23483 11.6869 6.42661 11.6888L6.14594 14.2435C6.14126 14.2869 6.1467 14.3308 6.16184 14.3718C6.17697 14.4128 6.20139 14.4497 6.23318 14.4796C6.26497 14.5095 6.30326 14.5317 6.34505 14.5444C6.38685 14.557 6.43101 14.5598 6.47407 14.5526C7.25952 14.4266 9.09203 13.9628 9.78901 12.37C10.0351 11.8054 10.0855 11.1462 10.0287 10.4871C10.4704 10.1756 10.8842 9.82622 11.2653 9.44292C13.4201 7.29897 14.9066 3.42271 14.4935 1.62154ZM9.11547 6.8853C8.91871 6.68867 8.78469 6.4381 8.73035 6.16529C8.67602 5.89248 8.70381 5.60968 8.81022 5.35267C8.91663 5.09566 9.09687 4.87598 9.32815 4.72142C9.55943 4.56686 9.83135 4.48436 10.1095 4.48436C10.3877 4.48436 10.6596 4.56686 10.8909 4.72142C11.1222 4.87598 11.3024 5.09566 11.4088 5.35267C11.5152 5.60968 11.543 5.89248 11.4887 6.16529C11.4343 6.4381 11.3003 6.68867 11.1036 6.8853C10.9731 7.01596 10.8181 7.11962 10.6476 7.19034C10.477 7.26106 10.2942 7.29746 10.1095 7.29746C9.92487 7.29746 9.74203 7.26106 9.57146 7.19034C9.4009 7.11962 9.24595 7.01596 9.11547 6.8853Z" fill="#0075FF"/>
<path d="M5.43371 12.2027C5.27317 12.3636 5.01565 12.4263 4.70569 12.4799C4.0093 12.5985 3.39436 11.9968 3.51946 11.2928C3.56721 11.0259 3.70842 10.6517 3.79631 10.5639C3.81552 10.545 3.82831 10.5206 3.83286 10.4941C3.8374 10.4676 3.83348 10.4403 3.82164 10.4161C3.8098 10.392 3.79065 10.3721 3.76691 10.3595C3.74317 10.3468 3.71604 10.342 3.68938 10.3456C3.29995 10.3932 2.93766 10.5698 2.66018 10.8472C1.97141 11.5365 1.90637 14.0944 1.90637 14.0944C1.90637 14.0944 4.46575 14.0294 5.15452 13.34C5.43274 13.0628 5.60952 12.6999 5.65637 12.3099C5.66721 12.1875 5.51809 12.1145 5.43371 12.2027Z" fill="#0075FF"/>
</svg>
