<svg width="21" height="21" viewBox="0 0 21 21" fill="none" xmlns="http://www.w3.org/2000/svg">
<g clip-path="url(#clip0_580_3937)">
<path d="M10.5 0.5C4.97697 0.5 0.5 4.97697 0.5 10.5C0.5 16.023 4.97697 20.5 10.5 20.5C16.023 20.5 20.5 16.023 20.5 10.5C20.5 4.97765 16.023 0.500682 10.5 0.5ZM15.0861 14.9224C14.9067 15.2172 14.5225 15.3093 14.2291 15.1298C11.8811 13.6948 8.92511 13.3707 5.44439 14.1656C5.10867 14.2427 4.77431 14.0326 4.69788 13.6969C4.62078 13.3611 4.83026 13.0268 5.16667 12.9504C8.97561 12.0803 12.2434 12.455 14.8794 14.0653C15.1728 14.2462 15.2663 14.629 15.0861 14.9224ZM16.3096 12.2004C16.0838 12.5676 15.6034 12.6822 15.2369 12.457C12.5498 10.805 8.45155 10.3267 5.27243 11.2915C4.86029 11.4164 4.42494 11.1837 4.29939 10.7723C4.1752 10.3601 4.40788 9.92545 4.81934 9.7999C8.45087 8.69788 12.9661 9.23149 16.0524 11.1285C16.4195 11.3543 16.5355 11.834 16.3096 12.2004ZM16.4147 9.36455C13.1912 7.45053 7.87427 7.27448 4.79683 8.20795C4.3028 8.35807 3.78011 8.07898 3.63067 7.58495C3.48124 7.09092 3.75964 6.56824 4.25435 6.41812C7.78693 5.34613 13.6586 5.55288 17.3693 7.75554C17.8135 8.01962 17.9596 8.59348 17.6962 9.03702C17.4335 9.48192 16.8582 9.62862 16.4147 9.36455Z" fill="#2EBD59"/>
</g>
<defs>
<clipPath id="clip0_580_3937">
<rect x="0.5" y="0.5" width="20" height="20" fill="white"/>
</clipPath>
</defs>
</svg>
