<svg width="16" height="16" viewBox="0 0 16 16" fill="none" xmlns="http://www.w3.org/2000/svg">
<g clip-path="url(#clip0_580_2998)">
<path d="M3.54687 15.0316H2.60937C2.42289 15.0316 2.24405 14.9575 2.11219 14.8256C1.98033 14.6938 1.90625 14.5149 1.90625 14.3284V10.1097C1.90625 9.9232 1.98033 9.74436 2.11219 9.6125C2.24405 9.48063 2.42289 9.40656 2.60937 9.40656H3.54687C3.73335 9.40656 3.9122 9.48063 4.04406 9.6125C4.17592 9.74436 4.25 9.9232 4.25 10.1097V14.3284C4.25 14.5149 4.17592 14.6938 4.04406 14.8256C3.9122 14.9575 3.73335 15.0316 3.54687 15.0316V15.0316Z" fill="#0075FF"/>
<path d="M10.1095 15.0308H9.172C8.98552 15.0308 8.80667 14.9567 8.67481 14.8248C8.54295 14.693 8.46887 14.5141 8.46887 14.3276V7.29639C8.46887 7.10991 8.54295 6.93106 8.67481 6.7992C8.80667 6.66734 8.98552 6.59326 9.172 6.59326H10.1095C10.296 6.59326 10.4748 6.66734 10.6067 6.7992C10.7385 6.93106 10.8126 7.10991 10.8126 7.29639V14.3276C10.8126 14.5141 10.7385 14.693 10.6067 14.8248C10.4748 14.9567 10.296 15.0308 10.1095 15.0308V15.0308Z" fill="#0075FF"/>
<path d="M13.3907 15.0311H12.4532C12.2668 15.0311 12.0879 14.957 11.9561 14.8252C11.8242 14.6933 11.7501 14.5145 11.7501 14.328V4.0155C11.7501 3.82902 11.8242 3.65018 11.9561 3.51832C12.0879 3.38646 12.2668 3.31238 12.4532 3.31238H13.3907C13.5772 3.31238 13.7561 3.38646 13.8879 3.51832C14.0198 3.65018 14.0939 3.82902 14.0939 4.0155V14.328C14.0939 14.5145 14.0198 14.6933 13.8879 14.8252C13.7561 14.957 13.5772 15.0311 13.3907 15.0311V15.0311Z" fill="#0075FF"/>
<path d="M6.82825 15.0309H5.89075C5.70427 15.0309 5.52542 14.9569 5.39356 14.825C5.2617 14.6931 5.18762 14.5143 5.18762 14.3278V1.67157C5.18762 1.48509 5.2617 1.30625 5.39356 1.17439C5.52542 1.04252 5.70427 0.968445 5.89075 0.968445H6.82825C7.01473 0.968445 7.19357 1.04252 7.32543 1.17439C7.45729 1.30625 7.53137 1.48509 7.53137 1.67157V14.3278C7.53137 14.5143 7.45729 14.6931 7.32543 14.825C7.19357 14.9569 7.01473 15.0309 6.82825 15.0309V15.0309Z" fill="#0075FF"/>
</g>
<defs>
<clipPath id="clip0_580_2998">
<rect width="15" height="15" fill="white" transform="translate(0.500122 0.499939)"/>
</clipPath>
</defs>
</svg>
