<svg width="13" height="13" viewBox="0 0 13 13" fill="none" xmlns="http://www.w3.org/2000/svg">
<path d="M9.37484 5.20834H6.77067M11.4582 6.1448C11.4582 4.77396 11.4582 4.08803 11.0571 3.64271C11.0203 3.60162 10.9814 3.5625 10.9405 3.52553C10.4951 3.12501 9.80921 3.12501 8.43838 3.12501H8.24359C7.64307 3.12501 7.34255 3.12501 7.06234 3.04532C6.90857 3.00136 6.76037 2.93985 6.62067 2.86198C6.3665 2.72084 6.154 2.50782 5.729 2.08334L5.44255 1.79688C5.29984 1.65417 5.229 1.58334 5.154 1.52084C4.83143 1.25346 4.43574 1.08956 4.01859 1.05053C3.92171 1.04167 3.82067 1.04167 3.61963 1.04167C3.15973 1.04167 2.93005 1.04167 2.73838 1.07813C2.32684 1.15585 1.94827 1.35581 1.65208 1.65191C1.35589 1.94801 1.15581 2.32651 1.07796 2.73803C1.0415 2.93021 1.0415 3.16042 1.0415 3.6198M11.4535 8.33334C11.4347 9.625 11.3389 10.3568 10.8478 10.8479C10.2379 11.4583 9.25557 11.4583 7.2915 11.4583H5.20817C3.24411 11.4583 2.26182 11.4583 1.65192 10.8479C1.04202 10.2375 1.0415 9.25573 1.0415 7.29167V5.72917" stroke="white" stroke-width="0.78125" stroke-linecap="round"/>
</svg>
