<svg width="24" height="23" viewBox="0 0 24 23" fill="none" xmlns="http://www.w3.org/2000/svg">
<path d="M12 2.35858C6.952 2.35858 2.85938 6.45121 2.85938 11.4992C2.85938 16.5472 6.952 20.6398 12 20.6398C17.048 20.6398 21.1406 16.5472 21.1406 11.4992C21.1406 6.45121 17.048 2.35858 12 2.35858Z" fill="white" stroke="#0075FF" stroke-width="0.75" stroke-miterlimit="10"/>
<path d="M12.0001 2.35858C9.44824 2.35858 7.04883 6.45121 7.04883 11.4992C7.04883 16.5472 9.44824 20.6398 12.0001 20.6398C14.552 20.6398 16.9515 16.5472 16.9515 11.4992C16.9515 6.45121 14.552 2.35858 12.0001 2.35858Z" fill="white" stroke="#0075FF" stroke-width="0.75" stroke-miterlimit="10"/>
<path d="M5.90625 5.40552C7.58672 6.59863 9.70224 7.31011 12.0001 7.31011C14.298 7.31011 16.4136 6.59863 18.094 5.40552" fill="white"/>
<path d="M5.90625 5.40552C7.58672 6.59863 9.70224 7.31011 12.0001 7.31011C14.298 7.31011 16.4136 6.59863 18.094 5.40552" stroke="#0075FF" stroke-width="0.75" stroke-linecap="round" stroke-linejoin="round"/>
<path d="M18.094 17.5944C16.4136 16.4013 14.298 15.6898 12.0001 15.6898C9.70224 15.6898 7.58672 16.4013 5.90625 17.5944" stroke="#0075FF" stroke-width="0.75" stroke-linecap="round" stroke-linejoin="round"/>
<path d="M12 2.35858V20.6398" stroke="#0075FF" stroke-width="0.75" stroke-miterlimit="10"/>
<path d="M21.1406 11.499H2.85938" stroke="#0075FF" stroke-width="0.75" stroke-miterlimit="10"/>
</svg>
